<?xml version="1.0" encoding="UTF-8"?>
<svg width="238px" height="75px" viewBox="0 0 238 75" version="1.1" xmlns="http://www.w3.org/2000/svg" xmlns:xlink="http://www.w3.org/1999/xlink">
    <!-- Generator: Sketch 48.1 (47250) - http://www.bohemiancoding.com/sketch -->
    <title>navigation-logo</title>
    <desc>Created with Sketch.</desc>
    <defs>
        <linearGradient x1="0%" y1="50%" x2="122.128701%" y2="50%" id="linearGradient-1">
            <stop stop-color="#FAE287" offset="0%"></stop>
            <stop stop-color="#FFBE37" offset="51.5345982%"></stop>
            <stop stop-color="#805F1C" offset="100%"></stop>
        </linearGradient>
        <linearGradient x1="0%" y1="0%" x2="0%" y2="114.401335%" id="linearGradient-2">
            <stop stop-color="#FAE287" offset="0%"></stop>
            <stop stop-color="#FFBE37" offset="51.5345982%"></stop>
            <stop stop-color="#805F1C" offset="100%"></stop>
        </linearGradient>
        <linearGradient x1="69.7205009%" y1="99.9999881%" x2="73.4588261%" y2="-21.3832571%" id="linearGradient-3">
            <stop stop-color="#FAE287" offset="0%"></stop>
            <stop stop-color="#FFBE37" offset="51.5345982%"></stop>
            <stop stop-color="#805F1C" offset="100%"></stop>
        </linearGradient>
    </defs>
    <g id="1-Home-Pg" stroke="none" stroke-width="1" fill="none" fill-rule="evenodd" transform="translate(-175.000000, -48.000000)">
        <g id="1" transform="translate(-0.500000, 0.000000)">
            <g id="navigation" transform="translate(175.000000, 48.000000)">
                <g id="navigation-logo" transform="translate(0.000000, 0.464356)">
                    <path d="M94.2763035,9.50709294 C94.7259855,9.50709294 94.9512946,9.73240198 94.9512946,10.1821776 L94.9512946,13.0972479 C94.9512946,13.5473044 94.7259855,13.7721454 94.2763035,13.7721454 L78.9035245,13.7721454 C78.3099704,13.7721454 77.8908974,13.9256589 77.6454632,14.2324049 C77.3999353,14.5393382 77.2772181,14.9587855 77.2772181,15.4905598 L77.2772181,16.5337959 C77.2772181,17.6797175 77.8088988,18.2521167 78.8727282,18.2521167 L90.3794024,18.2521167 C92.159035,18.2521167 93.4986269,18.7076023 94.3990206,19.6175438 C95.2989463,20.5279534 95.7490964,21.8320687 95.7490964,23.5297962 L95.7490964,25.9845134 C95.7490964,27.4779932 95.3089622,28.6847586 94.4297233,29.6052775 C93.5499229,30.5257965 92.1792538,30.986056 90.3179971,30.986056 L73.3189117,30.986056 C72.8481684,30.986056 72.6132179,30.761215 72.6132179,30.3109713 L72.6132179,27.3959946 C72.6132179,26.9463125 72.8481684,26.7209099 73.3189117,26.7209099 L89.4281808,26.7209099 C90.0212668,26.7209099 90.4407142,26.5675837 90.6861485,26.2606504 C90.93177,25.9538108 91.0543935,25.5348314 91.0543935,25.0025891 L91.0543935,23.7446214 C91.0543935,22.5991678 90.5223384,22.026207 89.4587899,22.026207 L77.9522092,22.026207 C76.1726703,22.026207 74.8325167,21.5712831 73.9326846,20.6607799 C73.0322909,19.7508384 72.5825153,18.4467231 72.5825153,16.7485275 L72.5825153,14.5086355 C72.5825153,13.0156237 73.0221815,11.8083903 73.9019819,10.8878714 C74.7812208,9.96735242 76.1519834,9.50709294 78.0137082,9.50709294 L94.2763035,9.50709294 Z" id="Fill-1" fill="#EEAA1C"></path>
                    <path d="M122.597632,9.50709294 C123.067907,9.50709294 123.303325,9.73240198 123.303325,10.1821776 L123.303325,13.1892624 C123.303325,13.6600057 123.067907,13.8949562 122.597632,13.8949562 L112.962792,13.8949562 L112.962792,30.3109713 C112.962792,30.761215 112.737389,30.986056 112.287707,30.986056 L108.943173,30.986056 C108.49293,30.986056 108.268089,30.761215 108.268089,30.3109713 L108.268089,13.8949562 L98.6332487,13.8949562 C98.1624118,13.8949562 97.9274614,13.6600057 97.9274614,13.1892624 L97.9274614,10.1821776 C97.9274614,9.73240198 98.1624118,9.50709294 98.6332487,9.50709294 L122.597632,9.50709294 Z" id="Fill-3" fill="#EEAA1C"></path>
                    <path d="M130.728536,20.4613435 L142.480551,20.4613435 C143.523787,20.4613435 144.260277,20.2365025 144.689741,19.7863524 C145.119391,19.3365768 145.334123,18.6510083 145.334123,17.7304893 L145.334123,16.4418189 C145.334123,15.5212063 145.119391,14.8361058 144.689741,14.3859558 C144.260277,13.9361801 143.523787,13.7108711 142.480551,13.7108711 L131.12739,13.7108711 C130.861269,13.7108711 130.728536,13.8335882 130.728536,14.0790225 L130.728536,20.4613435 Z M143.431773,9.50713038 C145.783898,9.50713038 147.471516,10.0392791 148.494627,11.102734 C149.517364,12.1665634 150.028825,13.7415738 150.028825,15.828046 L150.028825,17.5770695 C150.028825,19.3365768 149.67069,20.7274647 148.954887,21.7501075 C148.238615,22.7732184 147.072569,23.4276162 145.456933,23.7138626 L150.70391,30.2189007 C150.806034,30.3215862 150.836643,30.475006 150.796018,30.6791602 C150.754738,30.8839695 150.591209,30.9860934 150.305056,30.9860934 L146.346843,30.9860934 C146.080722,30.9860934 145.896599,30.9552971 145.794476,30.8939854 C145.69179,30.8326736 145.58976,30.7305497 145.487636,30.5871457 L140.639513,24.2048247 L130.728536,24.2048247 L130.728536,30.3110087 C130.728536,30.7611588 130.503227,30.9860934 130.053452,30.9860934 L126.739621,30.9860934 C126.26869,30.9860934 126.033833,30.7611588 126.033833,30.3110087 L126.033833,10.4276493 C126.033833,9.81397004 126.340673,9.50713038 126.954352,9.50713038 L143.431773,9.50713038 Z" id="Fill-5" fill="#EEAA1C"></path>
                    <path d="M157.700154,22.5479187 C157.700154,23.3456269 157.766333,24.0160313 157.899628,24.5577278 C158.032454,25.0999859 158.252428,25.5295427 158.559361,25.8463982 C158.866201,26.1638153 159.280406,26.3886563 159.802071,26.5214828 C160.323642,26.6547774 160.983375,26.7209567 161.781177,26.7209567 L170.894353,26.7209567 C171.692248,26.7209567 172.351888,26.6547774 172.873553,26.5214828 C173.395124,26.3886563 173.809423,26.1638153 174.116262,25.8463982 C174.423009,25.5295427 174.642608,25.0999859 174.775902,24.5577278 C174.908729,24.0160313 174.975376,23.3456269 174.975376,22.5479187 L174.975376,17.9452302 C174.975376,17.147522 174.908729,16.4776793 174.775902,15.9354211 C174.642608,15.3936311 174.423009,14.9640743 174.116262,14.6467508 C173.809423,14.3298017 173.395124,14.1049607 172.873553,13.9716661 C172.351888,13.8388395 171.692248,13.7721922 170.894353,13.7721922 L161.781177,13.7721922 C160.983375,13.7721922 160.323642,13.8388395 159.802071,13.9716661 C159.280406,14.1049607 158.866201,14.3298017 158.559361,14.6467508 C158.252428,14.9640743 158.032454,15.3936311 157.899628,15.9354211 C157.766333,16.4776793 157.700154,17.147522 157.700154,17.9452302 L157.700154,22.5479187 Z M171.078475,9.50713974 C172.632799,9.50713974 173.957601,9.65569207 175.052133,9.95204788 C176.146197,10.2487781 177.036013,10.719147 177.721675,11.363529 C178.406776,12.0078174 178.90298,12.8416574 179.209819,13.8642067 C179.516566,14.8874111 179.670079,16.134895 179.670079,17.6077815 L179.670079,22.8853674 C179.670079,24.3582539 179.516566,25.6115413 179.209819,26.6442936 C178.90298,27.6774203 178.406776,28.5160342 177.721675,29.1604162 C177.036013,29.8047046 176.146197,30.270206 175.052133,30.556546 C173.957601,30.8431668 172.632799,30.9861028 171.078475,30.9861028 L161.597055,30.9861028 C160.042263,30.9861028 158.72289,30.8431668 157.638842,30.556546 C156.554326,30.270206 155.669751,29.8047046 154.984651,29.1604162 C154.298989,28.5160342 153.798011,27.6774203 153.481155,26.6442936 C153.163738,25.6115413 153.005544,24.3582539 153.005544,22.8853674 L153.005544,17.6077815 C153.005544,16.134895 153.163738,14.8874111 153.481155,13.8642067 C153.798011,12.8416574 154.298989,12.0078174 154.984651,11.363529 C155.669751,10.719147 156.554326,10.2487781 157.638842,9.95204788 C158.72289,9.65569207 160.042263,9.50713974 161.597055,9.50713974 L171.078475,9.50713974 Z" id="Fill-7" fill="#EEAA1C"></path>
                    <path d="M188.936225,9.50709294 C189.427187,9.50709294 189.83615,9.52777981 190.163583,9.56849831 C190.490548,9.60977845 190.777356,9.69645737 191.02279,9.82928394 C191.268225,9.96257853 191.503175,10.146701 191.728484,10.3816515 C191.953325,10.6169763 192.208963,10.9290579 192.495583,11.3175218 L203.91015,26.2914467 C203.99168,26.4347571 204.124975,26.5061783 204.309004,26.5061783 L204.585234,26.5061783 C204.74867,26.5061783 204.830669,26.4040544 204.830669,26.1993386 L204.830669,10.1821776 C204.830669,9.73240198 205.05551,9.50709294 205.505753,9.50709294 L208.72757,9.50709294 C209.177252,9.50709294 209.402654,9.73240198 209.402654,10.1821776 L209.402654,27.7948487 C209.402654,29.0428942 209.177252,29.88675 208.72757,30.3263226 C208.277326,30.7664569 207.581648,30.986056 206.641097,30.986056 L204.002164,30.986056 C203.531421,30.986056 203.137809,30.9659307 202.820859,30.9247442 C202.503442,30.8839321 202.222438,30.8019335 201.977004,30.6792163 C201.731569,30.5564992 201.490909,30.3776186 201.255958,30.1422001 C201.020634,29.9072497 200.749645,29.5851523 200.442899,29.1756271 L188.99763,14.2017958 C188.874913,14.0589534 188.741618,13.9869706 188.598776,13.9869706 L188.322545,13.9869706 C188.158548,13.9869706 188.077111,14.0895625 188.077111,14.2939039 L188.077111,30.3109713 C188.077111,30.761215 187.851802,30.986056 187.402026,30.986056 L184.18021,30.986056 C183.709373,30.986056 183.474423,30.761215 183.474423,30.3109713 L183.474423,12.6983002 C183.474423,11.4508164 183.699357,10.6069605 184.149507,10.1668263 C184.599283,9.72725367 185.294961,9.50709294 186.23598,9.50709294 L188.936225,9.50709294 Z" id="Fill-9" fill="#EEAA1C"></path>
                    <path d="M237.386524,9.50709294 C237.8363,9.50709294 238.061609,9.73240198 238.061609,10.1821776 L238.061609,13.1892624 C238.061609,13.6600057 237.8363,13.8949562 237.386524,13.8949562 L222.013745,13.8949562 C221.215944,13.8949562 220.55621,13.9616035 220.034639,14.09443 C219.512974,14.2277246 219.098769,14.4525656 218.791929,14.7695147 C218.484996,15.0868382 218.265022,15.5111531 218.132196,16.0428337 C217.998901,16.5750761 217.932722,17.2500671 217.932722,18.0679942 L217.932722,22.4864665 C217.932722,23.3048616 217.998901,23.9852818 218.132196,24.5270719 C218.265022,25.0692364 218.484996,25.4988868 218.791929,25.8158359 C219.098769,26.1331594 219.512974,26.358094 220.034639,26.4907334 C220.55621,26.6240279 221.215944,26.6902072 222.013745,26.6902072 L232.139454,26.6902072 C232.671228,26.6902072 233.059973,26.5522323 233.305501,26.2760954 C233.550935,25.9998648 233.673746,25.5142381 233.673746,24.8184666 L233.673746,22.3330467 C233.673746,22.0675808 233.550935,21.9341926 233.305501,21.9341926 L224.315043,21.9341926 C223.864893,21.9341926 223.640052,21.6992421 223.640052,21.2284988 L223.640052,18.9272014 C223.640052,18.4568325 223.864893,18.221414 224.315043,18.221414 L237.110387,18.221414 C237.723973,18.221414 238.030906,18.5282537 238.030906,19.141933 L238.030906,26.2914467 C238.030906,28.0096739 237.703473,29.2216812 237.049076,29.9273749 C236.394023,30.6331623 235.453472,30.986056 234.22602,30.986056 L221.829623,30.986056 C220.274738,30.986056 218.955458,30.8432136 217.87141,30.5564992 C216.786894,30.2701592 215.902226,29.8047514 215.217219,29.1603694 C214.531557,28.5159874 214.030579,27.6773735 213.713723,26.6442468 C213.396306,25.6114945 213.238113,24.3582071 213.238113,22.8854142 L213.238113,17.6077347 C213.238113,16.1349418 213.396306,14.887458 213.713723,13.8642535 C214.030579,12.8416106 214.531557,12.0078642 215.217219,11.3634822 C215.902226,10.7191002 216.786894,10.2488249 217.87141,9.95200108 C218.955458,9.65573887 220.274738,9.50709294 221.829623,9.50709294 L237.386524,9.50709294 Z" id="Fill-11" fill="#EEAA1C"></path>
                    <g id="vpn" transform="translate(72.386513, 36.650373)" fill="#EEAA1C">
                        <polygon id="Fill-21" points="3.15310168 0.261400575 10.3433339 18.5277206 17.5029571 0.261400575 20.4096965 0.261400575 11.53662 21.9850491 9.15004778 21.9850491 0.246362268 0.261400575"></polygon>
                        <path d="M26.100505,11.7351443 L32.4339637,11.7351443 C33.0048652,11.7351443 33.5202585,11.6180435 33.9792075,11.3832803 C34.4380629,11.1489851 34.8306454,10.8224883 35.1571423,10.4041642 C35.4831711,9.98630807 35.7385276,9.50161749 35.9220885,8.95084125 C36.1056494,8.400065 36.197383,7.81877328 36.197383,7.20687248 C36.197383,6.57484645 36.0903916,5.98297728 35.8762217,5.43220103 C35.6619581,4.88142479 35.3760861,4.40244415 35.0194482,3.99413587 C34.6623423,3.58638921 34.2440182,3.27028259 33.7649439,3.04562878 C33.2854953,2.82144301 32.7805858,2.7090225 32.2504029,2.7090225 L26.100505,2.7090225 L26.100505,11.7351443 Z M23.346811,21.9850678 L23.346811,0.261419296 L32.4034483,0.261419296 C33.3619712,0.261419296 34.2440182,0.460237913 35.0499637,0.857968753 C35.8556284,1.2557932 36.549247,1.78644421 37.1306323,2.44907932 C37.7120177,3.11218247 38.1657247,3.8564418 38.4922216,4.68260617 C38.8181568,5.50867693 38.9816861,6.35019264 38.9816861,7.20687248 C38.9816861,8.10464525 38.8288279,8.97143451 38.5227371,9.80752109 C38.2167399,10.6441693 37.7832516,11.3886158 37.222366,12.0411415 C36.6611059,12.6941353 35.9880805,13.2143024 35.2030091,13.6014558 C34.4175632,13.9892644 33.545532,14.1828411 32.5870091,14.1828411 L26.100505,14.1828411 L26.100505,21.9850678 L23.346811,21.9850678 Z" id="Fill-23"></path>
                        <polygon id="Fill-25" points="45.1617999 5.4016762 45.1617999 21.9850584 42.4081059 21.9850584 42.4081059 0.261409936 44.5498991 0.261409936 58.012372 17.1813984 58.012372 0.291925411 60.7661596 0.291925411 60.7661596 21.9850584 58.4407119 21.9850584"></polygon>
                    </g>
                    <g id="logo" transform="translate(0.358528, 0.000000)">
                        <path d="M30.773199,8.55721355e-05 C15.4373888,8.55721355e-05 5.10121608,3.0455123 4.66864893,3.17506852 L0.612615278,4.39087742 L0.422388421,8.62096479 C0.411948621,8.85337871 0.225743654,13.0624153 0.180989427,18.7859076 C3.72119425,16.3138998 7.78937914,14.5470063 12.1832516,13.6879477 C12.1834227,13.6793049 12.1836794,13.6704909 12.1839362,13.6619337 C16.1218803,12.8914422 22.6616452,11.9302104 30.773199,11.9302104 C39.4069996,11.9302104 45.6124342,12.830087 49.2536141,13.5693447 C49.0599644,9.05413094 47.9246789,4.7827978 46.0337058,0.950021849 C42.0110453,0.415367146 36.9119729,8.55721355e-05 30.773199,8.55721355e-05 Z" id="Fill-14" fill="url(#linearGradient-1)"></path>
                        <path d="M49.2634549,13.5705427 C49.2714131,13.5722541 49.2800559,13.57388 49.2880997,13.5755059 C49.391043,16.4824769 49.4959544,20.5578498 49.4843166,24.8958437 C49.4459803,39.2800062 48.2026172,44.0395284 47.6728401,45.4104796 C47.0009277,47.01239 42.652494,51.083142 41.2236105,52.4206345 C40.8133777,52.8045967 40.4370314,53.1571539 40.1092046,53.4700056 C38.7617002,54.7555558 34.6170994,57.4618602 30.9431453,59.711466 C35.2973123,62.351452 40.338709,63.9685942 45.7353158,64.2390021 C46.7674013,63.4728748 47.6723266,62.7427734 48.3446669,62.1012391 C48.6481057,61.8117485 48.9968121,61.4856331 49.3765813,61.1300809 C53.5139085,57.2570005 57.3477113,53.4700056 58.79756,49.7190366 C59.4337888,48.0725432 61.3701151,43.0626369 61.4144415,24.8685462 C61.4354066,16.2496351 61.0291957,8.86801155 61.0119101,8.5579837 L60.7907917,4.59548039 L57.0506048,3.26868443 C56.8114307,3.18379687 53.0718428,1.88541086 46.043461,0.951305431 C47.9344341,4.78408138 49.0697196,9.05532895 49.2634549,13.5705427" id="Fill-16" fill="url(#linearGradient-2)"></path>
                        <path d="M0.190659078,18.7853086 C0.175683954,20.6957065 0.176368532,22.7747672 0.204607336,24.9310994 C0.443011306,43.1181732 2.42768585,48.1058307 3.07991666,49.7447083 C4.56964197,53.4886603 8.4500816,57.2594821 12.6355003,61.1146779 C13.0359779,61.4835794 13.4031679,61.8215893 13.7215819,62.1209206 C17.1064733,65.3030061 26.0406321,70.7495869 27.7971713,71.8092267 L30.827195,73.6368764 L33.8838317,71.8538098 C35.3424088,71.0028804 41.5694075,67.3294398 45.7294113,64.2420827 C40.3343449,63.9709902 35.2950874,62.3501684 30.9421184,59.7106959 C30.9373264,59.7136909 30.9324488,59.7166859 30.9278279,59.7195954 C27.3438101,57.4570681 23.2847814,54.7373289 21.8929507,53.428931 C21.548694,53.105126 21.1513825,52.739134 20.7180452,52.33994 C19.2661428,51.0026186 14.8476256,46.9325512 14.1645032,45.333807 C12.1988257,40.3940699 11.9068536,24.8604168 12.1930068,13.6876909 C7.79921994,14.5468352 3.7308639,16.3134719 0.190659078,18.7853086" id="Fill-18" fill="url(#linearGradient-3)"></path>
                    </g>
                </g>
            </g>
        </g>
    </g>
</svg>
